<?xml version="1.0" encoding="UTF-8" standalone="no"?><!DOCTYPE svg PUBLIC "-//W3C//DTD SVG 1.1//EN" "http://www.w3.org/Graphics/SVG/1.1/DTD/svg11.dtd"><svg width="100%" height="100%" viewBox="0 0 11503 11019" version="1.1" xmlns="http://www.w3.org/2000/svg" xmlns:xlink="http://www.w3.org/1999/xlink" xml:space="preserve" xmlns:serif="http://www.serif.com/" style="fill-rule:evenodd;clip-rule:evenodd;stroke-linejoin:round;stroke-miterlimit:2;"><path d="M11084.466,2466.849c0,17.669 -1.185,35.326 -3.542,54.18c-1.172,17.656 -3.529,36.51 -7.07,55.352c-2.357,32.982 -8.242,67.135 -15.299,102.461c-3.529,23.555 -8.255,45.938 -12.956,69.492c-54.18,248.503 -151.94,515.859 -259.102,759.648c-30.625,73.021 -63.607,143.685 -95.404,210.82c-15.312,30.625 -29.44,61.237 -43.581,90.69c-28.255,56.523 -55.352,109.531 -80.078,158.984l0,1.185c-18.867,37.682 -37.695,71.836 -56.536,104.818c-17.669,32.969 -34.167,63.594 -49.466,91.862c-10.599,18.854 -20.013,35.326 -28.268,51.823c-5.885,10.599 -11.771,20.026 -16.484,29.44l346.25,3443.737l-495.833,0c-211.992,475.82 -823.242,1730.117 -1564.049,2237.734l-308.568,210.807l-144.857,-382.76c-176.667,179.01 -383.958,385.117 -509.974,500.547c-267.344,242.617 -1223.685,319.167 -1979.792,340.378l-8.242,1.172l-8.255,-1.172c-756.107,-21.211 -1712.435,-97.76 -1980.977,-340.378c-126.016,-115.43 -332.122,-321.536 -508.789,-500.547l-144.857,382.76l-308.568,-210.807c-741.979,-506.432 -1353.229,-1761.914 -1565.234,-2237.734l-497.005,0l348.62,-3443.737c-141.341,-248.503 -507.617,-926.888 -630.104,-1502.812c-4.714,-22.37 -9.427,-44.753 -12.956,-67.122c-7.07,-35.339 -12.956,-69.492 -15.312,-102.474c-3.529,-18.841 -5.885,-37.682 -7.07,-55.352c-2.344,-18.841 -3.529,-36.51 -3.529,-52.995c-1.172,-23.555 -2.357,-44.753 -2.357,-67.135c0,-25.898 0,-50.638 2.357,-75.365c28.268,-403.971 388.659,-933.971 1071.758,-1577.005c236.732,-223.776 559.427,-340.378 886.849,-317.995c24.727,1.172 49.466,3.529 75.365,5.885c47.109,3.529 95.404,8.242 147.227,12.956c240.26,23.555 528.815,64.779 840.911,133.086c69.492,14.128 138.971,30.612 210.82,49.466c71.836,17.656 143.685,36.51 216.693,57.708c635.99,-264.987 1751.328,-273.242 1884.414,-273.242c131.901,0 1248.411,8.255 1884.388,273.242c71.849,-21.198 143.698,-40.052 215.534,-57.708c71.836,-18.854 141.341,-35.339 210.82,-49.466c12.943,-3.529 27.083,-7.07 40.039,-8.255c34.154,-8.229 67.135,-15.299 101.289,-21.198c256.745,-51.81 495.833,-83.607 699.583,-103.633c51.823,-4.714 100.104,-9.427 147.227,-12.956c25.898,-2.357 50.638,-4.714 75.365,-5.885c327.409,-22.383 650.117,94.219 888.021,319.167c341.549,320.352 601.836,613.607 780.859,877.422c41.211,61.25 78.893,121.302 111.875,180.195c17.669,31.797 35.339,63.594 50.638,95.391c11.784,25.911 23.568,50.651 35.339,75.391c15.312,36.51 29.453,71.836 41.237,107.161c9.414,28.268 17.656,56.536 24.727,83.633c14.128,54.167 22.37,107.174 25.911,157.813c2.344,24.727 2.344,49.466 2.344,75.378c0,22.37 -1.172,43.568 -2.344,65.951Z"/><path d="M6639.625,7961.055c-121.302,85.977 -888.021,158.997 -888.021,158.997c0,0 -766.719,-73.021 -889.193,-158.997c-182.552,-128.372 -158.997,-734.909 -158.997,-734.909c0,0 -426.354,898.62 -199.036,1170.677l143.672,107.174c0,0 807.943,77.721 1103.555,77.721c295.625,0 1103.555,-77.721 1103.555,-77.721l143.698,-107.174c227.292,-272.057 -199.049,-1170.677 -199.049,-1170.677c0,0 22.37,606.536 -160.182,734.909" style="fill:#fff;fill-rule:nonzero;"/><path d="M5150.957,5245.163c-263.815,0 -451.081,201.393 -537.057,349.792c0,0 -155.456,539.414 96.589,883.307c97.747,-468.737 120.117,-584.154 260.273,-701.927c507.604,-38.867 780.846,-23.568 780.846,-23.568c0,0 272.07,-15.299 779.674,23.568c141.328,117.773 163.698,233.19 260.286,701.927c253.203,-343.893 96.576,-883.307 96.576,-883.307c-85.99,-148.398 -273.242,-349.792 -537.057,-349.792l-1200.13,0Z" style="fill:#fff;fill-rule:nonzero;"/><path d="M6857.517,3548.022c0,0 460.495,196.693 710.182,0c250.859,-197.865 210.82,-605.352 210.82,-605.352l-921.003,605.352Z" style="fill:#fff;fill-rule:nonzero;"/><path d="M11498.333,2291.914c-5.638,-77.018 -18.424,-154.062 -38.034,-229.076c-9.766,-37.513 -20.716,-74.492 -32.526,-109.909c-17.07,-51.315 -36.042,-97.93 -52.305,-136.719l-3.698,-8.802l-7.07,-14.87c-9.779,-20.547 -19.596,-41.133 -29.336,-62.656l-4.049,-8.62c-20.638,-42.826 -42.435,-82.109 -62.357,-117.956c-36.849,-65.755 -79.297,-134.193 -130.651,-210.508c-196.797,-290.065 -479.557,-608.724 -839.128,-945.977c-296.992,-280.768 -685.404,-435.417 -1093.685,-435.417c-34.466,0 -69.375,1.146 -103.802,3.424c-26.719,1.367 -53.477,3.672 -81.185,6.185l-4.375,0.417c-37.305,2.826 -75.326,6.328 -115.104,10l-38.385,3.516c-252.539,24.818 -500.065,61.419 -735.742,108.776c-32.526,5.742 -65.911,12.591 -101.419,20.82c-21.667,3.555 -41.081,7.995 -57.76,12.266c-69.466,14.375 -141.055,31.25 -218.32,51.458c-32.708,8.06 -64.023,16.016 -94.076,23.906c-698.919,-239.31 -1698.841,-252.174 -1903.711,-252.174c-204.896,0 -1205.273,12.891 -1904.193,252.331c-30.547,-8.008 -62.044,-16.003 -94.792,-24.062c-80.286,-20.99 -154.622,-38.438 -227.07,-53.255c-293.034,-63.997 -591.198,-111.12 -889.232,-140.339l-35.417,-3.268c-39.727,-3.672 -77.708,-7.148 -114.974,-9.974l-4.375,-0.417c-27.708,-2.513 -54.466,-4.818 -81.185,-6.185c-34.414,-2.279 -69.336,-3.424 -103.841,-3.424c-408.281,0 -796.237,154.193 -1091.797,433.594c-769.74,724.622 -1162.695,1328.372 -1201.042,1845.586c-3.698,42.005 -3.698,79.115 -3.698,109.141c0,26.667 1.081,52.083 2.435,79.583c0.456,25.859 2.214,52.721 5.273,80.104c1.849,22.956 4.635,46.029 8.333,68.958c4.414,45.638 11.719,87.201 18.789,123.151c4.414,26.38 9.818,52.852 15.495,79.661c115.156,541.393 408.503,1137.5 609.987,1504.714l-381.745,3770.664l690.404,0c679.909,1430.612 1336.836,1987.813 1596.979,2165.352l744.245,508.516l105.43,-278.516c24.961,23.646 47.76,44.922 68.437,63.841c203.32,183.75 640.26,400.234 2224.036,446.667l43.516,6.172l43.529,-6.172c1584.453,-46.458 2020.794,-263.255 2224.987,-448.555c20.807,-19.089 43.385,-40.143 67.122,-62.656l105.703,279.219l744.792,-508.828c716.615,-491.029 1297.995,-1545.326 1594.766,-2165.039l689.453,0l-379.258,-3772.383c10.052,-18.633 20.547,-38.177 31.497,-58.62c24.948,-43.763 45.586,-82.148 64.648,-120.312l27.031,-54.779l52.982,-105.156l16.901,-35.352c8.594,-18.242 17.383,-36.875 26.706,-55.482l3.841,-7.904c33.294,-70.221 68.607,-146.003 101.68,-224.714c133.451,-303.997 228.789,-584.948 283.294,-835.13l3.294,-16.068c4.727,-23.359 9.193,-46.094 12.93,-69.466c6.628,-33.867 14.063,-75.898 18.516,-121.719c3.646,-22.747 6.406,-45.638 8.294,-68.411c3.112,-27.773 4.87,-54.635 5.273,-81.51c1.341,-26.458 2.435,-51.94 2.435,-78.659c0,-29.987 0,-66.992 -3.698,-108.984Zm-413.867,174.935c0,17.669 -1.185,35.326 -3.542,54.18c-1.172,17.656 -3.529,36.51 -7.07,55.352c-2.357,32.982 -8.242,67.135 -15.299,102.461c-3.529,23.555 -8.255,45.938 -12.956,69.492c-54.18,248.503 -151.94,515.859 -259.102,759.648c-30.625,73.021 -63.607,143.685 -95.404,210.82c-15.312,30.625 -29.44,61.237 -43.581,90.69c-28.255,56.523 -55.352,109.531 -80.078,158.984l0,1.185c-18.867,37.682 -37.695,71.836 -56.536,104.818c-17.669,32.969 -34.167,63.594 -49.466,91.862c-10.599,18.854 -20.013,35.326 -28.268,51.823c-5.885,10.599 -11.771,20.026 -16.484,29.44l346.25,3443.737l-495.833,0c-211.992,475.82 -823.242,1730.117 -1564.049,2237.734l-308.568,210.807l-144.857,-382.76c-176.667,179.01 -383.958,385.117 -509.974,500.547c-267.344,242.617 -1223.685,319.167 -1979.792,340.378l-8.242,1.172l-8.255,-1.172c-756.107,-21.211 -1712.435,-97.76 -1980.977,-340.378c-126.016,-115.43 -332.122,-321.536 -508.789,-500.547l-144.857,382.76l-308.568,-210.807c-741.979,-506.432 -1353.229,-1761.914 -1565.234,-2237.734l-497.005,0l348.62,-3443.737c-141.341,-248.503 -507.617,-926.888 -630.104,-1502.812c-4.714,-22.37 -9.427,-44.753 -12.956,-67.122c-7.07,-35.339 -12.956,-69.492 -15.312,-102.474c-3.529,-18.841 -5.885,-37.682 -7.07,-55.352c-2.344,-18.841 -3.529,-36.51 -3.529,-52.995c-1.172,-23.555 -2.357,-44.753 -2.357,-67.135c0,-25.898 0,-50.638 2.357,-75.365c28.268,-403.971 388.659,-933.971 1071.758,-1577.005c236.732,-223.776 559.427,-340.378 886.849,-317.995c24.727,1.172 49.466,3.529 75.365,5.885c47.109,3.529 95.404,8.242 147.227,12.956c240.26,23.555 528.815,64.779 840.911,133.086c69.492,14.128 138.971,30.612 210.82,49.466c71.836,17.656 143.685,36.51 216.693,57.708c635.99,-264.987 1751.328,-273.242 1884.414,-273.242c131.901,0 1248.411,8.255 1884.388,273.242c71.849,-21.198 143.698,-40.052 215.534,-57.708c71.836,-18.854 141.341,-35.339 210.82,-49.466c12.943,-3.529 27.083,-7.07 40.039,-8.255c34.154,-8.229 67.135,-15.299 101.289,-21.198c256.745,-51.81 495.833,-83.607 699.583,-103.633c51.823,-4.714 100.104,-9.427 147.227,-12.956c25.898,-2.357 50.638,-4.714 75.365,-5.885c327.409,-22.383 650.117,94.219 888.021,319.167c341.549,320.352 601.836,613.607 780.859,877.422c41.211,61.25 78.893,121.302 111.875,180.195c17.669,31.797 35.339,63.594 50.638,95.391c11.784,25.911 23.568,50.651 35.339,75.391c15.312,36.51 29.453,71.836 41.237,107.161c9.414,28.268 17.656,56.536 24.727,83.633c14.128,54.167 22.37,107.174 25.911,157.813c2.344,24.727 2.344,49.466 2.344,75.378c0,22.37 -1.172,43.568 -2.344,65.951Z" style="fill:#fff;"/><path d="M3934.34,3548.022c249.688,196.693 710.195,0 710.195,0l-921.003,-605.352c0,0 -38.88,407.487 210.807,605.352" style="fill:#fff;fill-rule:nonzero;"/><path d="M7919.852,4431.336c591.224,736.094 619.492,1598.203 619.492,1598.203c0,0 -591.237,-1774.87 -1980.977,-2097.565c-296.784,334.479 -639.518,367.448 -639.518,367.448l0,458.151c0,254.388 961.042,40.052 1197.773,658.372c236.732,619.479 633.633,2929.049 423.984,3165.781c-210.82,236.719 -1154.193,485.234 -1788.997,485.234c-635.977,0 -1578.19,-248.516 -1789.01,-485.234c-210.807,-236.732 187.279,-2546.302 423.997,-3165.781c236.719,-618.32 1197.773,-403.984 1197.773,-658.372l0,-458.151c0,0 -343.906,-32.969 -639.518,-367.448c-1389.753,322.695 -1980.977,2097.565 -1980.977,2097.565c0,0 27.083,-862.109 618.32,-1598.203c-276.784,-183.724 -737.279,-657.174 -408.685,-1407.409c-116.589,24.727 -256.745,194.323 -256.745,194.323c0,0 18.854,-281.484 286.185,-488.763c314.466,-243.789 916.302,-237.904 1469.844,213.177c425.169,346.25 1078.815,341.549 1078.815,341.549c0,0 652.474,4.701 1078.815,-341.549c552.37,-451.081 1155.378,-456.966 1469.844,-213.177c266.159,207.279 286.185,488.763 286.185,488.763c0,0 -141.328,-169.596 -256.745,-194.323c328.581,750.234 -133.086,1223.685 -409.857,1407.409m1989.206,670.143l-89.505,-889.206c-67.122,-665.43 -339.18,-1187.174 -566.497,-1519.297l-117.773,423.997l-354.492,-573.568c-314.466,-509.974 -1182.474,-1182.461 -1323.802,-1289.635c-415.742,-203.75 -1368.542,-248.503 -1705.378,-249.687c-338.008,1.185 -1294.349,45.938 -1708.919,250.859c-146.042,111.888 -1008.151,780.859 -1321.432,1288.464l-354.505,573.568l-117.773,-423.997c-227.305,332.122 -499.362,853.867 -566.497,1519.297l-89.505,888.021l0,1.185l-202.578,2000.99l236.732,0l75.378,183.737c155.456,383.945 619.492,1350.872 1138.88,1900.885l190.794,-504.076l322.708,334.479c5.885,5.885 559.427,579.453 796.159,797.331c160.169,94.219 950.443,175.495 1600.56,194.336c648.932,-18.841 1439.219,-100.117 1598.203,-194.336c239.089,-217.878 792.63,-791.445 798.516,-797.331l321.523,-334.479l191.979,504.076c518.216,-551.185 982.24,-1516.94 1137.695,-1900.885l75.378,-182.552l237.904,-1.185l-202.565,-2003.346l-1.185,2.357Z" style="fill:#fff;fill-rule:nonzero;"/></svg>